<?xml version="1.0" encoding="utf-8"?><svg viewBox="0 0 48 48" xmlns="http://www.w3.org/2000/svg" xmlns:xlink="http://www.w3.org/1999/xlink"><style>:root>svg{display:none}:root>svg:target{display:block}</style><svg viewBox="0 0 6 9" id="arrow" xmlns="http://www.w3.org/2000/svg"><path d="m1 1 4 3.5L1 8"/></svg><svg viewBox="0 0 48 48" id="telegram" xmlns="http://www.w3.org/2000/svg"><path fill-rule="evenodd" clip-rule="evenodd" d="M48 24c0 13.255-10.745 24-24 24S0 37.255 0 24 10.745 0 24 0s24 10.745 24 24Zm-23.14-6.282c-2.334.97-7 2.98-13.996 6.029-1.136.451-1.731.893-1.786 1.326-.091.73.823 1.018 2.069 1.41.17.052.345.108.525.166 1.225.398 2.874.864 3.73.883.778.017 1.646-.304 2.603-.961 6.537-4.413 9.912-6.643 10.124-6.692.15-.033.356-.076.496.049.14.124.127.36.112.424-.09.386-3.68 3.724-5.539 5.452-.579.538-.99.92-1.074 1.007-.188.196-.38.38-.564.558-1.138 1.098-1.992 1.92.047 3.265.98.645 1.765 1.18 2.547 1.712.854.582 1.707 1.163 2.81 1.885.28.184.549.376.81.562.994.709 1.887 1.346 2.991 1.244.642-.059 1.304-.662 1.64-2.46.795-4.25 2.358-13.46 2.72-17.255a4.228 4.228 0 0 0-.04-.945c-.033-.187-.1-.453-.342-.65-.288-.233-.732-.282-.93-.279-.903.016-2.288.498-8.953 3.27Z"/></svg><svg viewBox="0 0 48 48" id="vk" xmlns="http://www.w3.org/2000/svg"><path fill-rule="evenodd" clip-rule="evenodd" d="M3.374 3.374C0 6.748 0 12.18 0 23.04v1.92c0 10.861 0 16.292 3.374 19.666C6.748 48 12.18 48 23.04 48h1.92c10.861 0 16.292 0 19.666-3.374C48 41.252 48 35.82 48 24.96v-1.92c0-10.861 0-16.292-3.374-19.666C41.252 0 35.82 0 24.96 0h-1.92C12.179 0 6.748 0 3.374 3.374ZM8.1 14.6c.26 12.48 6.5 19.98 17.44 19.98h.62v-7.14c4.02.4 7.06 3.34 8.28 7.14h5.68c-1.56-5.68-5.66-8.82-8.22-10.02 2.56-1.48 6.16-5.08 7.02-9.96h-5.16c-1.12 3.96-4.44 7.56-7.6 7.9v-7.9H21v13.84c-3.2-.8-7.24-4.68-7.42-13.84H8.1Z"/></svg><svg viewBox="0 0 48 34" id="youtube" xmlns="http://www.w3.org/2000/svg"><path d="M47.522 7.4s-.469-3.31-1.913-4.762C43.781.725 41.737.716 40.8.603 34.088.116 24.01.116 24.01.116h-.02S13.914.116 7.2.603c-.938.113-2.981.122-4.81 2.035C.948 4.09.488 7.4.488 7.4S0 11.29 0 15.172v3.637c0 3.882.478 7.772.478 7.772s.469 3.31 1.903 4.763c1.828 1.912 4.228 1.847 5.297 2.053 3.844.366 16.322.478 16.322.478s10.087-.019 16.8-.497c.938-.112 2.981-.122 4.81-2.034 1.443-1.453 1.912-4.763 1.912-4.763S48 22.701 48 18.81v-3.638c0-3.881-.478-7.772-.478-7.772ZM19.04 23.225V9.735l12.965 6.768-12.965 6.722Z"/></svg></svg>